PathFileType	4	(X/Y/Z)	c:/Users/goper/Files/vsCode/490R/osim_files/A02/A02_PWS_02.trc
DataRate	CameraRate	NumFrames	NumMarkers	Units                	OrigDataRate	OrigDataStartFrame	OrigNumFrames
250.00	250.00	11	36	mm	250.0	1539	3077
                Frame#	Time	Mobility_markerset:LPSIS			Mobility_markerset:LASIS			Mobility_markerset:LTH1			Mobility_markerset:LTH2			Mobility_markerset:LTH3			Mobility_markerset:LTH4			Mobility_markerset:LLFE			Mobility_markerset:LMFE			Mobility_markerset:LSH1			Mobility_markerset:LSH2			Mobility_markerset:LSH3			Mobility_markerset:LSH4			Mobility_markerset:LLMAL			Mobility_markerset:LMMAL			Mobility_markerset:LCAL			Mobility_markerset:LMTP5			Mobility_markerset:LTOE			Mobility_markerset:LMTP1			Mobility_markerset:RPSIS			Mobility_markerset:RASIS			Mobility_markerset:RTH1			Mobility_markerset:RTH2			Mobility_markerset:RTH3			Mobility_markerset:RTH4			Mobility_markerset:RLFE			Mobility_markerset:RMFE			Mobility_markerset:RSH1			Mobility_markerset:RSH2			Mobility_markerset:RSH3			Mobility_markerset:RSH4			Mobility_markerset:RLMAL			Mobility_markerset:RMMAL			Mobility_markerset:RCAL			Mobility_markerset:RMTP1			Mobility_markerset:RTOE			Mobility_markerset:RMTP5		
		X1	Y1	Z1	X2	Y2	Z2	X3	Y3	Z3	X4	Y4	Z4	X5	Y5	Z5	X6	Y6	Z6	X7	Y7	Z7	X8	Y8	Z8	X9	Y9	Z9	X10	Y10	Z10	X11	Y11	Z11	X12	Y12	Z12	X13	Y13	Z13	X14	Y14	Z14	X15	Y15	Z15	X16	Y16	Z16	X17	Y17	Z17	X18	Y18	Z18	X19	Y19	Z19	X20	Y20	Z20	X21	Y21	Z21	X22	Y22	Z22	X23	Y23	Z23	X24	Y24	Z24	X25	Y25	Z25	X26	Y26	Z26	X27	Y27	Z27	X28	Y28	Z28	X29	Y29	Z29	X30	Y30	Z30	X31	Y31	Z31	X32	Y32	Z32	X33	Y33	Z33	X34	Y34	Z34	X35	Y35	Z35	X36	Y36	Z36

1539	6.15200	126.11054	979.88544	322.45569	-12.00904	947.57660	416.13528	64.59483	687.65857	420.75021	48.87691	643.03839	416.73959	10.10433	698.66467	447.93707	3.18681	654.62097	438.73975	0.00000	0.00000	0.00000	0.00000	0.00000	0.00000	51.64015	410.25214	377.82455	57.65169	365.64917	383.04196	-6.87965	398.39001	395.10217	6.52755	355.73010	397.64783	46.31840	113.93978	347.48962	27.19972	119.07528	267.67584	111.99935	105.35961	298.38889	-34.58788	41.35551	369.63840	-91.28759	52.95057	307.64932	0.00000	0.00000	0.00000	110.98573	999.54132	223.76616	-50.36868	981.52344	175.31009	-35.99956	655.55298	132.95349	-43.75969	612.20569	133.09169	-98.25094	659.00238	142.31102	-95.03275	617.50714	137.33206	-64.76426	501.01910	122.68163	-68.89121	499.60538	256.62305	-1.12410	326.47037	137.84152	7.76780	281.03433	147.77040	-58.52362	310.71671	140.89844	-41.95378	266.57544	146.50029	52.67746	124.60812	143.20181	49.02903	126.55050	227.97774	111.80590	118.06765	181.53125	-63.08918	61.12851	232.12711	-90.15145	67.53482	200.31827	-63.41125	60.92149	140.86906
1540	6.15600	121.86002	980.65063	322.39493	-16.18508	948.15668	416.53531	61.73652	688.54797	420.73672	46.18330	643.84460	416.80261	7.23503	699.23199	448.07416	0.56216	655.12610	438.82141	0.00000	0.00000	0.00000	-60.82353	467.97128	280.73959	50.29730	410.87115	377.72552	56.52347	366.32654	383.00662	-8.08103	398.76669	395.09064	5.57849	356.17822	397.68936	45.85167	114.57146	347.55817	26.44268	119.58629	267.82928	111.48442	106.25717	298.47864	-35.24201	40.93577	369.50186	-91.92501	52.85638	307.60623	0.00000	0.00000	0.00000	107.15469	1000.46362	223.65840	-54.75301	981.80090	175.80913	-40.90711	655.72815	133.40422	-49.04899	612.34839	133.48927	-103.34530	659.45160	142.54939	-100.34059	617.89508	137.59476	-70.72366	501.28180	123.07806	-75.30164	499.98544	256.90488	-11.07227	325.33942	138.38156	-3.22358	279.70883	148.38046	-69.17266	310.88525	141.31818	-53.33345	266.42117	146.95248	38.25901	122.34193	143.97156	33.61224	124.09101	228.51877	96.87953	114.42869	182.44159	-79.09583	60.53181	232.88631	-105.85957	68.42525	200.51826	-79.39876	61.18701	141.22713
1541	6.16000	117.66096	981.41284	322.35120	-20.14594	948.68573	416.80301	58.82888	689.42993	420.75970	43.64796	644.70038	416.86008	4.29011	699.74738	448.18954	-2.19824	655.60809	438.95456	-25.17476	483.77890	395.75031	-64.02904	467.31339	281.88461	48.88755	411.41794	377.69727	55.36218	366.99902	382.92938	-9.34745	399.14072	395.19965	4.36532	356.67438	397.74841	45.44968	115.11076	347.66174	25.99641	120.04185	267.93533	110.91747	107.02483	298.60477	-35.50777	40.83338	369.50003	-92.08817	52.51722	307.37296	0.00000	0.00000	0.00000	102.71595	1001.17590	223.67383	-59.15507	982.48578	175.88892	-45.94870	655.74310	133.80453	-54.37814	612.36707	133.90082	-108.31221	659.88531	142.70078	-105.63593	618.24603	137.84473	-76.75469	501.47040	123.41848	-81.83448	500.10452	257.27667	-21.12644	324.20734	138.96950	-14.21891	278.46683	148.99266	-79.44144	311.08420	141.69923	-64.69120	266.25888	147.46623	23.66357	120.11888	144.74567	19.23079	121.78780	229.68701	82.20839	111.07904	183.41190	-95.57621	59.66665	234.08650	-121.74979	69.44368	200.97884	-94.85407	61.23414	141.48993
1542	6.16400	113.50764	982.09747	322.26059	-24.13225	949.09796	416.91455	55.94513	690.14990	420.81052	41.04038	645.37372	416.91525	1.45372	700.24731	448.34460	-4.83873	656.06995	439.13858	0.00000	0.00000	0.00000	-65.69206	467.49503	281.95840	47.58168	412.03418	377.68735	54.10276	367.57715	382.89117	-10.69784	399.48547	395.29211	3.27395	357.03381	397.80414	45.02358	115.63319	347.77759	25.37123	120.50722	268.08954	110.21064	107.67808	298.71976	-35.62253	40.78487	369.54364	-93.49269	53.11847	307.04715	0.00000	0.00000	0.00000	98.27505	1001.77716	223.68646	-63.50889	982.70142	176.25993	-50.94024	655.64746	134.24771	-59.64326	612.38953	134.32352	-113.43314	660.17004	143.01788	-110.91556	618.51276	138.19476	-82.84145	501.54074	123.80831	-88.29255	500.33734	257.56519	-31.06423	323.13449	139.52138	-25.58674	277.09409	149.72105	-89.70276	311.26428	142.08116	-76.08501	266.13824	147.94861	9.05101	118.00347	145.52301	4.03075	119.17265	229.69431	67.39372	107.79774	184.35272	-112.22899	62.30558	234.44044	-137.83922	70.66960	201.25883	-111.09763	62.24234	142.05084
1543	6.16800	109.33481	982.76617	322.16428	-28.17209	949.47351	417.17368	52.97461	690.80627	420.91061	38.13007	645.88184	417.00583	-1.52579	700.60303	448.54941	-7.55750	656.40277	439.30084	0.00000	0.00000	0.00000	-67.36351	467.70767	281.96686	46.07093	412.57425	377.68826	52.84948	368.11441	382.86078	-11.99350	399.79492	395.40805	2.12047	357.46423	397.93738	44.47551	116.03751	347.90683	24.80536	120.95249	268.21701	109.73478	108.41430	298.82184	-35.82507	40.66091	369.53824	-92.19083	52.31489	307.90915	0.00000	0.00000	0.00000	93.97231	1002.34308	223.62794	-67.91763	983.18365	176.29591	-55.98600	655.44574	134.69945	-65.07433	612.15387	134.76750	-118.43958	660.37415	143.28600	-116.32597	618.64368	138.50899	-88.97250	501.56052	124.20118	-94.67725	500.48257	257.83096	-41.14718	322.04205	140.09554	-36.66307	275.85358	150.31410	-100.12183	311.45425	142.55019	-87.41518	266.08078	148.35970	-5.48165	116.14845	146.31177	-10.46460	117.94225	230.58659	52.47423	104.60639	185.26199	-128.07864	63.18191	235.10146	-153.47285	71.98583	201.62947	-126.81927	62.96906	142.51712
1544	6.17200	105.05868	983.33704	322.14368	-32.13005	949.81342	417.40829	50.10133	691.45752	421.01797	35.58632	646.53961	417.09888	-4.42735	700.96765	448.73761	-10.33238	656.71783	439.47168	-30.04034	484.72726	396.22342	-69.44204	467.60120	282.30609	44.65995	413.06204	377.62225	51.59222	368.69156	382.92642	-13.26129	400.16507	395.53577	0.95858	357.81052	397.99890	44.07023	116.47309	347.98041	24.35964	121.35838	268.33493	109.29894	109.15420	298.91617	-35.86396	40.67130	369.60028	-92.37934	52.16440	307.95929	0.00000	0.00000	0.00000	89.60501	1002.84100	223.60419	-72.14767	983.35107	176.50764	-61.06777	655.18933	135.08026	-70.35799	611.99719	135.17014	-123.62498	660.42206	143.56407	-121.66930	618.75488	138.82532	-95.16415	501.51114	124.63427	-102.58195	500.44949	259.90192	-51.33591	320.97937	140.66896	-47.56001	274.74768	150.77611	-110.18193	311.72006	142.96439	-98.75478	266.05423	148.86053	-20.05164	114.22086	147.19604	-25.00319	116.34217	231.18179	37.45790	101.60063	186.16299	-144.03258	64.08045	235.21468	-169.10504	73.46085	201.81163	-142.52307	63.84249	142.79871
1545	6.17600	100.88735	983.88623	322.02240	-36.21890	950.11389	417.60828	47.10214	692.00854	421.15637	32.74174	646.91364	417.21085	-7.38015	701.21045	448.95551	-13.06754	656.98553	439.68491	-31.86909	484.83453	396.32675	-71.39475	467.49594	282.61041	42.99006	413.29236	377.80316	50.29129	369.16507	382.90726	-14.86076	400.36508	395.60568	-0.37294	358.07205	398.08078	43.69860	116.89366	348.06226	23.69899	121.64850	268.56293	108.82661	109.84058	299.00262	-36.00077	40.61672	369.58282	-92.56603	52.01292	307.99731	0.00000	0.00000	0.00000	85.16939	1003.24762	223.59563	-76.47790	983.49292	176.71924	-66.10665	654.81866	135.54582	-75.75629	611.68237	135.63356	-128.68518	660.50775	143.85300	-127.04111	618.78015	139.10155	-101.40480	501.37454	125.05847	-109.26289	500.45908	260.31116	-61.44380	319.94443	141.26311	-58.71737	273.58044	151.35426	-120.66630	311.88995	143.32657	-110.02963	266.06836	149.40010	-34.83817	112.50785	147.60950	-38.62158	115.50652	231.34015	22.41764	98.67600	186.97604	-160.00455	65.03118	235.66202	-184.52335	74.93355	202.08020	-158.30786	64.87665	143.04684
1546	6.18000	96.71196	984.40015	321.95404	-40.46430	950.24890	417.91501	44.19949	692.49054	421.23434	30.00072	647.39618	417.29410	-10.33616	701.46924	449.14670	-15.89136	657.20087	439.85593	-33.75502	485.01044	396.47168	0.00000	0.00000	0.00000	41.70628	413.98227	377.64249	48.97099	369.66611	382.91010	-16.26119	400.54712	395.75900	-1.56343	358.40326	398.17828	43.29512	117.30234	348.15601	23.32605	122.00598	268.56866	108.39558	110.39857	299.03754	-36.10991	40.58654	369.59186	-92.75294	51.87472	308.05069	0.00000	0.00000	0.00000	80.87328	1003.60785	223.57349	-80.75303	983.59277	176.76254	-71.30022	654.31018	136.01862	-81.15617	611.33594	136.08755	-133.83524	660.52313	144.10625	-132.43842	618.72931	139.41730	-107.77158	501.18915	125.52053	-116.02395	500.53070	260.91205	-71.65145	318.93707	141.83363	-69.89067	272.51599	151.95616	-130.99297	312.13428	143.87399	-121.22303	266.16907	150.00658	-49.53107	110.98481	148.37372	-54.78056	113.13029	232.62746	7.63230	96.10424	187.80928	-175.84419	66.18850	235.75679	-200.29416	76.68615	202.43579	-173.70471	65.95378	143.51219
1547	6.18400	92.50778	984.83044	321.95358	-44.33949	950.55585	417.93311	41.17496	692.92761	421.36676	27.27606	647.79291	417.45935	-13.31418	701.64215	449.31445	-18.74133	657.30878	440.01328	0.00000	0.00000	0.00000	0.00000	0.00000	0.00000	40.10778	414.39484	377.69183	47.59687	370.13388	382.94321	-17.72335	400.77451	395.88141	-2.86759	358.61819	398.27750	42.99928	117.78370	348.24347	22.82208	122.30842	268.67581	108.02395	111.03685	299.07898	-36.21884	40.56757	369.62711	-92.91331	51.78114	308.09668	0.00000	0.00000	0.00000	76.58553	1003.90826	223.55095	-85.03815	983.51520	176.90150	-76.35983	653.85126	136.46204	-86.54279	610.93048	136.50714	-138.85799	660.49774	144.25328	-137.98741	618.64667	139.76813	-114.13380	500.95453	125.95090	-122.77345	500.37909	261.36145	-81.85692	317.93304	142.40652	-81.26440	271.41672	152.72580	-141.27348	312.53903	144.54018	-132.16003	266.26382	150.92140	-64.11840	109.60262	149.07472	-69.14497	112.13229	233.10181	-7.65222	93.42877	188.77589	-191.62668	67.41548	236.32695	-215.77863	78.50261	202.60954	-189.06351	67.05345	143.83405
1548	6.18800	88.31799	985.19745	321.89572	-48.45394	950.69196	418.11118	38.18484	693.27747	421.47031	24.45026	648.08917	417.61456	-16.32895	701.75586	449.54874	-21.47767	657.37042	440.23447	0.00000	0.00000	0.00000	0.00000	0.00000	0.00000	39.48394	415.25333	377.27090	46.27487	370.54410	382.89087	-19.22239	400.86865	396.01605	-4.15823	358.79581	398.39905	42.72129	118.09919	348.27731	22.41215	122.57513	268.73993	107.91003	111.74268	299.10696	-35.66247	40.99151	369.90729	-92.94103	51.59957	308.09219	0.00000	0.00000	0.00000	72.27005	1004.19061	223.51027	-89.28064	983.39124	177.02573	-81.69551	653.15002	136.91840	-92.14081	610.42993	137.01805	-144.20879	660.32959	144.65669	-143.54465	618.46387	140.13213	-120.67279	500.65048	126.43503	-129.40483	500.26010	261.46667	-92.09214	316.97565	142.99574	-92.42273	270.46713	153.28659	-151.76483	312.71820	144.56970	-143.72298	266.09854	150.73088	-78.50994	108.34194	149.88408	-83.90697	110.93324	233.79370	-22.30658	91.21600	189.52084	-207.26912	68.93392	236.53670	-230.93456	80.28148	202.90559	-204.27350	68.38821	144.16187
1549	6.19200	84.10919	985.51221	321.89410	-52.58102	950.78265	418.33142	35.17448	693.62604	421.61755	21.49980	648.25830	417.74747	-19.32156	701.82898	449.75769	-24.32340	657.38733	440.38956	-39.76069	484.85977	396.84662	0.00000	0.00000	0.00000	36.95260	415.09247	377.81693	44.90962	370.95142	382.99115	-20.68749	400.93567	396.12952	-5.39586	358.99606	398.51740	42.44598	118.40739	348.28256	22.09587	122.81712	268.79089	107.37657	112.00413	299.14233	-35.76351	40.97887	369.90918	-93.05746	51.54528	308.12790	0.00000	0.00000	0.00000	67.95180	1004.31812	223.52249	-93.43941	983.21399	177.02510	-86.87641	652.49762	137.43826	-97.74304	609.82263	137.45662	-149.35333	660.15491	144.84102	-149.13301	618.22168	140.50560	-127.20872	500.30026	126.87047	-136.62967	500.14557	262.03543	-102.35299	316.06570	143.58505	-103.47117	269.61429	153.77689	-162.03633	313.01105	144.90227	-155.04205	266.23276	151.16618	-93.08750	107.15874	150.56561	-98.64420	109.82639	234.53006	-36.95552	89.00810	190.38676	-222.64857	70.44541	236.88524	-246.17148	82.27871	203.08530	-219.53171	69.77999	144.47598
